<svg width="64" height="66" viewBox="0 0 64 66" fill="none" xmlns="http://www.w3.org/2000/svg">
<circle cx="32" cy="33" r="32" fill="white"/>
<circle cx="32" cy="33" r="26" fill="#5927E9"/>
<path d="M29.3446 51.715C26.1546 51.715 23.7346 50.9817 22.0846 49.515C20.4346 48.0117 19.6096 45.8483 19.6096 43.025C19.6096 41.0083 19.9579 39.4317 20.6546 38.295C21.3513 37.1217 21.9929 36.2417 22.5796 35.655C23.0929 35.1417 23.5146 34.83 23.8446 34.72C24.1746 34.5733 24.4496 34.5 24.6696 34.5C25.1463 34.5 25.5129 34.6283 25.7696 34.885C26.0629 35.1417 26.2096 35.4717 26.2096 35.875C26.2096 36.1317 26.1546 36.37 26.0446 36.59C25.9713 36.7733 25.8796 36.9383 25.7696 37.085C24.9996 38.075 24.6146 39.3033 24.6146 40.77C24.6146 42.4567 25.2013 43.685 26.3746 44.455C27.5479 45.225 29.0696 45.61 30.9396 45.61C33.5429 45.61 35.4313 44.895 36.6046 43.465C37.7779 41.9983 38.4563 40.0367 38.6396 37.58C38.7129 36.7 38.7496 35.6917 38.7496 34.555C38.7863 33.4183 38.8046 32.3367 38.8046 31.31C38.7313 27.46 38.4196 24.2517 37.8696 21.685C36.9529 21.6117 35.9629 21.5567 34.8996 21.52C33.8363 21.4833 32.8279 21.465 31.8746 21.465C28.5746 21.465 25.9896 21.7033 24.1196 22.18C23.4963 22.3267 22.9829 22.4 22.5796 22.4C22.2863 22.4 22.0663 22.345 21.9196 22.235C21.8096 22.0883 21.7546 21.7767 21.7546 21.3C21.7546 20.64 21.8646 19.9983 22.0846 19.375C22.3046 18.7517 22.5979 18.2017 22.9646 17.725C23.3679 17.175 23.8446 16.79 24.3946 16.57C24.9446 16.3133 25.6229 16.1483 26.4296 16.075C27.6763 15.965 29.1246 15.8733 30.7746 15.8C32.4613 15.69 34.3679 15.635 36.4946 15.635C38.2546 15.635 39.6663 15.6717 40.7296 15.745C41.8296 15.8183 42.5996 15.8917 43.0396 15.965C43.5529 16.0383 43.9196 16.2033 44.1396 16.46C44.3596 16.7167 44.4696 17.1383 44.4696 17.725C44.4696 18.2383 44.3779 18.77 44.1946 19.32C44.0479 19.87 43.8279 20.3467 43.5346 20.75C43.6079 25.6633 43.5163 30.1183 43.2596 34.115C43.0396 38.075 42.3246 41.43 41.1146 44.18C38.8413 49.2033 34.9179 51.715 29.3446 51.715Z" fill="white"/>
</svg>
